<svg width="1047" height="348" xmlns="http://www.w3.org/2000/svg" xmlns:xlink="http://www.w3.org/1999/xlink" xml:space="preserve" overflow="hidden"><g transform="translate(-1728 -775)"><path d="M1731.5 923C1731.5 849.822 1790.82 790.5 1864 790.5L2639 790.5C2712.18 790.5 2771.5 849.822 2771.5 923L2771.5 923C2771.5 996.178 2712.18 1055.5 2639 1055.5L1864 1055.5C1790.82 1055.5 1731.5 996.178 1731.5 923Z" stroke="#DFF6DD" stroke-width="6.875" stroke-miterlimit="8" fill="#FFFDB6" fill-rule="evenodd"/><text fill="#595959" font-family="Trebuchet MS,Trebuchet MS_MSFontService,sans-serif" font-weight="400" font-size="165" transform="matrix(1 0 0 1 2066.57 985)">At Risk</text><g><g><g><path d="M220.838 195 125.531 29.25C121.875 22.6688 112.369 22.6688 108.713 29.25L13.1625 195C9.50625 201.581 14.1375 209.625 21.6938 209.625L117 209.625 212.306 209.625C219.863 209.625 224.494 201.581 220.838 195ZM109.688 68.25 124.313 68.25 124.313 153.563 109.688 153.563 109.688 68.25ZM117 187.688C110.175 187.688 104.813 182.325 104.813 175.5 104.813 168.675 110.175 163.313 117 163.313 123.825 163.313 129.188 168.675 129.188 175.5 129.188 182.325 123.825 187.688 117 187.688Z" stroke="#A8A400" stroke-width="2.43755" fill="#EAE400" transform="matrix(1 0 0 1.00427 1778 803)"/></g></g></g></g></svg>