<svg width="68" height="68" xmlns="http://www.w3.org/2000/svg" xmlns:xlink="http://www.w3.org/1999/xlink" xml:space="preserve" overflow="hidden"><g transform="translate(-517 -234)"><path d="M581.175 290.667 553.479 242.5C552.417 240.587 549.654 240.587 548.592 242.5L520.825 290.667C519.763 292.579 521.108 294.917 523.304 294.917L551 294.917 578.696 294.917C580.892 294.917 582.237 292.579 581.175 290.667ZM548.875 253.833 553.125 253.833 553.125 278.625 548.875 278.625 548.875 253.833ZM551 288.542C549.017 288.542 547.458 286.983 547.458 285 547.458 283.017 549.017 281.458 551 281.458 552.983 281.458 554.542 283.017 554.542 285 554.542 286.983 552.983 288.542 551 288.542Z" stroke="#A8A400" stroke-width="0.708333" fill="#EAE400"/></g></svg>