<svg width="719" height="719" xmlns="http://www.w3.org/2000/svg" xmlns:xlink="http://www.w3.org/1999/xlink" xml:space="preserve" overflow="hidden"><g><path d="M678.556 599.167 385.714 89.875C374.479 69.6531 345.27 69.6531 334.035 89.875L40.4438 599.167C29.2094 619.389 43.4396 644.104 66.6573 644.104L359.5 644.104 652.343 644.104C675.56 644.104 689.791 619.389 678.556 599.167ZM337.031 209.708 381.969 209.708 381.969 471.844 337.031 471.844 337.031 209.708ZM359.5 576.698C338.529 576.698 322.052 560.221 322.052 539.25 322.052 518.279 338.529 501.802 359.5 501.802 380.471 501.802 396.948 518.279 396.948 539.25 396.948 560.221 380.471 576.698 359.5 576.698Z" stroke="#A8A400" stroke-width="7.48958" fill="#EAE400"/></g></svg>