<svg width="1098" height="348" xmlns="http://www.w3.org/2000/svg" xmlns:xlink="http://www.w3.org/1999/xlink" xml:space="preserve" overflow="hidden"><g transform="translate(-1727 -122)"><path d="M1731.5 273C1731.5 199.822 1790.82 140.5 1864 140.5L2639 140.5C2712.18 140.5 2771.5 199.822 2771.5 273L2771.5 273C2771.5 346.178 2712.18 405.5 2639 405.5L1864 405.5C1790.82 405.5 1731.5 346.178 1731.5 273Z" stroke="#3B7D23" stroke-width="9.16667" stroke-miterlimit="8" fill="#93DCAB" fill-rule="evenodd"/><text fill="#595959" font-family="Trebuchet MS,Trebuchet MS_MSFontService,sans-serif" font-weight="400" font-size="165" transform="matrix(1 0 0 1 2015.35 332)">Complete</text><g><g><g><path d="M27.625 64.4583C27.625 44.1158 44.1158 27.625 64.4583 27.625L156.542 27.625C176.884 27.625 193.375 44.1158 193.375 64.4583L193.375 156.542C193.375 176.884 176.884 193.375 156.542 193.375L64.4583 193.375C44.1158 193.375 27.625 176.884 27.625 156.542L27.625 64.4583Z" stroke="#FFFFFF" stroke-width="18.4167" fill="#91DC5A" transform="matrix(1.05882 0 0 1 1778 160)"/><path d="M147.333 82.875 101.292 138.125 73.6667 113.011" stroke="#FFFFFF" stroke-width="18.4167" stroke-linecap="round" stroke-linejoin="round" fill="#91DC5A" transform="matrix(1.05882 0 0 1 1778 160)"/></g></g></g></g></svg>