<svg width="68" height="68" xmlns="http://www.w3.org/2000/svg" xmlns:xlink="http://www.w3.org/1999/xlink" xml:space="preserve" overflow="hidden"><g transform="translate(-517 -360)"><path d="M581.175 416.667 553.479 368.5C552.417 366.587 549.654 366.587 548.592 368.5L520.825 416.667C519.763 418.579 521.108 420.917 523.304 420.917L551 420.917 578.696 420.917C580.892 420.917 582.237 418.579 581.175 416.667ZM548.875 379.833 553.125 379.833 553.125 404.625 548.875 404.625 548.875 379.833ZM551 414.542C549.017 414.542 547.458 412.983 547.458 411 547.458 409.017 549.017 407.458 551 407.458 552.983 407.458 554.542 409.017 554.542 411 554.542 412.983 552.983 414.542 551 414.542Z" fill="#A06802"/></g></svg>