<svg width="1058" height="347" xmlns="http://www.w3.org/2000/svg" xmlns:xlink="http://www.w3.org/1999/xlink" xml:space="preserve" overflow="hidden"><g transform="translate(-1728 -1221)"><path d="M1731.5 1370C1731.5 1296.82 1790.82 1237.5 1864 1237.5L2638 1237.5C2711.18 1237.5 2770.5 1296.82 2770.5 1370L2770.5 1370C2770.5 1443.18 2711.18 1502.5 2638 1502.5L1864 1502.5C1790.82 1502.5 1731.5 1443.18 1731.5 1370Z" stroke="#DFF6DD" stroke-width="6.875" stroke-miterlimit="8" fill="#FDC254" fill-rule="evenodd"/><text fill="#595959" font-family="Trebuchet MS,Trebuchet MS_MSFontService,sans-serif" font-weight="400" font-size="165" transform="matrix(1 0 0 1 2015.35 1431)">High Risk</text><g><g><g><path d="M220.837 195 125.531 29.25C121.875 22.6687 112.369 22.6687 108.712 29.25L13.1625 195C9.50624 201.581 14.1375 209.625 21.6937 209.625L117 209.625 212.306 209.625C219.862 209.625 224.493 201.581 220.837 195ZM109.687 68.2499 124.312 68.2499 124.312 153.562 109.687 153.562 109.687 68.2499ZM117 187.687C110.175 187.687 104.812 182.325 104.812 175.5 104.812 168.675 110.175 163.312 117 163.312 123.825 163.312 129.187 168.675 129.187 175.5 129.187 182.325 123.825 187.687 117 187.687Z" fill="#A06802" transform="matrix(1 0 0 1 1778 1237)"/></g></g></g></g></svg>