<svg width="720" height="720" xmlns="http://www.w3.org/2000/svg" xmlns:xlink="http://www.w3.org/1999/xlink" xml:space="preserve" overflow="hidden"><g><path d="M679.5 600 386.25 90C375 69.75 345.75 69.75 334.5 90L40.5 600C29.25 620.25 43.5 645 66.75 645L360 645 653.25 645C676.5 645 690.75 620.25 679.5 600ZM337.5 210 382.5 210 382.5 472.5 337.5 472.5 337.5 210ZM360 577.5C339 577.5 322.5 561 322.5 540 322.5 519 339 502.5 360 502.5 381 502.5 397.5 519 397.5 540 397.5 561 381 577.5 360 577.5Z" fill="#A06802"/></g></svg>