<svg width="67" height="68" xmlns="http://www.w3.org/2000/svg" xmlns:xlink="http://www.w3.org/1999/xlink" xml:space="preserve" overflow="hidden"><g transform="translate(-518 -477)"><path d="M33.4895 6.97917C18.8502 6.97878 6.98238 18.846 6.98196 33.4853 6.98154 48.1247 18.8488 59.9925 33.4881 59.9929 48.1275 59.9933 59.9953 48.1261 59.9957 33.4867 59.9957 33.4858 59.9957 33.4849 59.9957 33.484 60.0011 18.8511 48.1433 6.98454 33.5105 6.97917 33.5035 6.97916 33.4965 6.97916 33.4895 6.97917ZM45.3332 41.9929 41.9964 45.3297 33.4895 36.8214 24.9854 45.3283 21.6487 41.9916 30.15 33.484 21.6452 24.977 24.9854 21.6403 33.4895 30.15 41.9964 21.6403 45.3332 24.977 36.8263 33.484Z" fill="#C64315" transform="matrix(1 0 0 1.01493 518 477)"/></g></svg>