<svg width="720" height="720" xmlns="http://www.w3.org/2000/svg" xmlns:xlink="http://www.w3.org/1999/xlink" xml:space="preserve" overflow="hidden"><g><path d="M359.888 75C202.569 74.9959 75.0345 202.524 75.03 359.842 75.0255 517.161 202.554 644.695 359.872 644.7 517.191 644.704 644.726 517.176 644.73 359.857 644.73 359.848 644.73 359.837 644.73 359.828 644.788 202.579 517.36 75.0577 360.112 75 360.038 74.9999 359.962 74.9999 359.888 75ZM487.163 451.267 451.305 487.125 359.888 395.693 268.5 487.11 232.642 451.253 324 359.828 232.605 268.41 268.5 232.553 359.888 324 451.305 232.553 487.163 268.41 395.745 359.828Z" fill="#C64315"/></g></svg>