<svg width="1047" height="348" xmlns="http://www.w3.org/2000/svg" xmlns:xlink="http://www.w3.org/1999/xlink" xml:space="preserve" overflow="hidden"><g transform="translate(-1728 -1607)"><path d="M1731.5 1757.5C1731.5 1684.6 1790.6 1625.5 1863.5 1625.5L2639.5 1625.5C2712.4 1625.5 2771.5 1684.6 2771.5 1757.5L2771.5 1757.5C2771.5 1830.4 2712.4 1889.5 2639.5 1889.5L1863.5 1889.5C1790.6 1889.5 1731.5 1830.4 1731.5 1757.5Z" stroke="#DFF6DD" stroke-width="6.875" stroke-miterlimit="8" fill="#FFA0A0" fill-rule="evenodd"/><text fill="#595959" font-family="Trebuchet MS,Trebuchet MS_MSFontService,sans-serif" font-weight="400" font-size="165" transform="matrix(1 0 0 1 2079.74 1817)">Missed</text><g><g><g><path d="M1895.46 1665.27C1844.55 1665.27 1803.28 1706.54 1803.28 1757.45 1803.28 1808.36 1844.55 1849.63 1895.46 1849.63 1946.37 1849.63 1987.64 1808.36 1987.64 1757.45 1987.64 1757.45 1987.64 1757.45 1987.64 1757.44 1987.66 1706.56 1946.42 1665.29 1895.54 1665.27 1895.51 1665.27 1895.49 1665.27 1895.46 1665.27ZM1936.65 1787.04 1925.05 1798.64 1895.46 1769.05 1865.89 1798.63 1854.29 1787.03 1883.85 1757.44 1854.27 1727.86 1865.89 1716.26 1895.46 1745.85 1925.05 1716.26 1936.65 1727.86 1907.07 1757.44Z" fill="#C64315"/></g></g></g></g></svg>