<svg width="1047" height="347" xmlns="http://www.w3.org/2000/svg" xmlns:xlink="http://www.w3.org/1999/xlink" xml:space="preserve" overflow="hidden"><g transform="translate(-1728 -440)"><path d="M1731.5 598C1731.5 524.822 1790.82 465.5 1864 465.5L2639 465.5C2712.18 465.5 2771.5 524.822 2771.5 598L2771.5 598C2771.5 671.178 2712.18 730.5 2639 730.5L1864 730.5C1790.82 730.5 1731.5 671.178 1731.5 598Z" stroke="#DFF6DD" stroke-width="6.875" stroke-miterlimit="8" fill="#7AB68E" fill-rule="evenodd"/><text fill="#595959" font-family="Trebuchet MS,Trebuchet MS_MSFontService,sans-serif" font-weight="400" font-size="165" transform="matrix(1 0 0 1 2015.35 650)">On Track</text><g><g><g><path d="M111.5 74.3334 111.5 111.5 139.375 139.375M195.125 111.5C195.125 157.685 157.685 195.125 111.5 195.125 65.3152 195.125 27.875 157.685 27.875 111.5 27.875 65.3152 65.3152 27.875 111.5 27.875 157.685 27.875 195.125 65.3152 195.125 111.5Z" stroke="#396949" stroke-width="18.5833" stroke-linecap="round" stroke-linejoin="round" fill="none" transform="matrix(1.04933 0 0 1 1778 485)"/></g></g></g></g></svg>